<?xml version="1.0" encoding="UTF-8" standalone="no"?>
<!-- Created with Inkscape (http://www.inkscape.org/) -->

<svg
   width="5.1948934in"
   height="0.78545493in"
   viewBox="0 0 131.95029 19.950555"
   version="1.1"
   id="svg1"
   xml:space="preserve"
   inkscape:version="1.4.2 (ebf0e940d0, 2025-05-08)"
   sodipodi:docname="logos.svg"
   inkscape:export-filename="horizontal main.png"
   inkscape:export-xdpi="317.62701"
   inkscape:export-ydpi="317.62701"
   xmlns:inkscape="http://www.inkscape.org/namespaces/inkscape"
   xmlns:sodipodi="http://sodipodi.sourceforge.net/DTD/sodipodi-0.dtd"
   xmlns:xlink="http://www.w3.org/1999/xlink"
   xmlns="http://www.w3.org/2000/svg"
   xmlns:svg="http://www.w3.org/2000/svg"><sodipodi:namedview
     id="namedview1"
     pagecolor="#505050"
     bordercolor="#ffffff"
     borderopacity="1"
     inkscape:showpageshadow="0"
     inkscape:pageopacity="0"
     inkscape:pagecheckerboard="1"
     inkscape:deskcolor="#505050"
     inkscape:document-units="mm"
     showguides="false"
     showgrid="true"
     inkscape:zoom="1.4142136"
     inkscape:cx="298.75261"
     inkscape:cy="-137.53227"
     inkscape:window-width="1920"
     inkscape:window-height="1008"
     inkscape:window-x="0"
     inkscape:window-y="0"
     inkscape:window-maximized="1"
     inkscape:current-layer="layer1"
     inkscape:export-bgcolor="#ffffffff"><inkscape:grid
       id="grid71"
       units="mm"
       originx="6.0005445"
       originy="51.949974"
       spacingx="1"
       spacingy="1"
       empcolor="#0099e5"
       empopacity="0.30196078"
       color="#0099e5"
       opacity="0.14901961"
       empspacing="4"
       enabled="true"
       visible="true"
       dotted="false"
       snapvisiblegridlinesonly="false" /><inkscape:page
       x="-2.1502511e-14"
       y="0"
       width="131.95029"
       height="19.950556"
       id="page2"
       margin="0"
       bleed="0" /></sodipodi:namedview><defs
     id="defs1"><linearGradient
       id="linearGradient8"
       inkscape:collect="always"><stop
         style="stop-color:#04fc92;stop-opacity:0;"
         offset="0"
         id="stop8" /><stop
         style="stop-color:#04fc92;stop-opacity:1;"
         offset="1"
         id="stop9" /></linearGradient><linearGradient
       inkscape:collect="always"
       xlink:href="#linearGradient8"
       id="linearGradient92"
       gradientUnits="userSpaceOnUse"
       gradientTransform="matrix(1.7527433,0,0,1.7527433,-186.64127,-254.0743)"
       x1="212.14496"
       y1="187.80891"
       x2="215.59669"
       y2="187.80891" /></defs><g
     inkscape:label="Layer 1"
     inkscape:groupmode="layer"
     id="layer1"
     transform="translate(-65.145284,-70.695794)"><path
       id="path5"
       style="fill:#04fc92;fill-opacity:1;stroke-width:1"
       d="m 115.64604,73.645969 c -0.27612,-1.22e-4 -0.50006,0.223595 -0.50022,0.49971 -1.3e-4,0.276318 0.2239,0.500352 0.50022,0.50023 h 5.49993 v 13.99966 c 1.4e-4,0.0325 0.0166,1.99456 1.99988,1.99471 v 0.006 h 4.00027 v -0.006 c 0.73786,-6e-5 1.20369,-0.2728 1.49758,-0.6165 0.29361,0.34658 0.76043,0.62218 1.50275,0.62218 v -5.1e-4 c 0.0333,2.9e-4 1.72026,0.0135 2.50734,-0.28164 0.79493,-0.2981 1.34572,-0.86357 2.59571,-2.11357 l 0.89555,-0.89555 v 0.002 l 3.20084,-3.20291 0.10025,-0.10025 0.6997,-0.6997 v 2.29185 h -1.50017 c -0.27613,1.6e-4 -0.49985,0.22411 -0.49971,0.50023 1.6e-4,0.27592 0.22379,0.49955 0.49971,0.49971 h 1.50017 v 2.00039 c 2e-5,0.01 0.005,1.99988 1.99988,1.99988 v -0.99994 c 0,0 -0.99958,-5e-4 -0.99994,-0.99994 v -6.49986 -5.1e-4 c -1.6e-4,-0.27592 -0.22379,-0.49955 -0.49971,-0.49971 -0.13476,-1.8e-4 -0.26389,0.054 -0.35812,0.15037 l -4.1429,4.14187 v 0.002 c -0.60783,0.60783 -1.15346,1.15396 -1.60249,1.603 -1.24999,1.25 -1.70227,1.68273 -2.24069,1.88464 -0.53841,0.20191 -2.15594,0.21756 -2.15594,0.21756 v 0.001 c 0,0 -0.9928,-3.4e-4 -0.99994,-0.9896 2.1e-4,-0.007 -3e-5,-0.009 0,-0.0114 v -4.9997 h -0.99994 v 4.9997 c -0.004,0.99448 -0.99993,0.99529 -0.99993,0.99529 v 0.005 h -4.00027 v -0.005 c 0,0 -0.99994,-4.6e-4 -0.99994,-1.00046 v -13.99449 h 3.50004 c 0.27632,1.27e-4 0.50036,-0.223908 0.50023,-0.50023 -1.6e-4,-0.276119 -0.22411,-0.499837 -0.50023,-0.49971 z m 12.50001,9.9999 0.99994,-5.1e-4 c 0,-1 0.99994,-1.00046 0.99994,-1.00046 v 0.001 h 0.99989 c 0.27612,-1.6e-4 0.49983,-0.224105 0.49971,-0.50022 -1.6e-4,-0.275916 -0.22379,-0.49955 -0.49971,-0.49971 h -0.99937 v -5.2e-4 c -2,0 -2.0004,2.00039 -2.0004,2.00039 z m 16.00006,-2.00039 c -2,0 -2.00039,2.00039 -2.00039,2.00039 h 5.1e-4 l 0.99943,-5.1e-4 c 0,-1 0.99993,-1.00046 0.99993,-1.00046 l 5.2e-4,-0.9989 z m 0,5.2e-4 v 0.99993 h 6.49986 c 0.27632,1.27e-4 0.50035,-0.223902 0.50023,-0.50022 -1.6e-4,-0.276119 -0.22411,-0.499837 -0.50023,-0.49971 z m -1.99988,1.99987 v 7.00009 h 0.99994 7.99951 c 2,0 2.0004,-2.00039 2.0004,-2.00039 l -0.99994,5.1e-4 c 0,1 -0.99994,1.00046 -0.99994,1.00046 v -5.2e-4 h -8.00003 v -6.00015 z m 10.99985,4.9997 v -0.29146 l 2.50062,-2.50062 3.64629,3.64629 0.004,0.004 c 0.33234,0.3325 0.70332,0.72243 1.24592,0.93948 0.53793,0.21518 1.08869,0.2029 1.58389,0.20257 0.006,0 0.0134,5.2e-4 0.0196,5.2e-4 v -5.2e-4 h 8.99945 v -1.00045 h -8.00003 v -5.99964 h -0.99993 v 5.99964 h -0.0191 v 10e-4 c -0.49191,-4.1e-4 -0.92807,-0.0168 -1.21285,-0.13074 -0.28747,-0.11499 -0.57831,-0.38725 -0.91002,-0.71882 -0.001,-0.001 -0.002,-0.003 -0.004,-0.004 h -5.2e-4 l -3.64629,-3.64629 2.64635,-2.64635 c 0.0939,-0.09369 0.14666,-0.220844 0.14677,-0.35347 1.3e-4,-0.276322 -0.22391,-0.500357 -0.50023,-0.50023 -0.13255,-3e-5 -0.25969,0.05257 -0.35347,0.14625 l -5.14697,5.14749 v -4.79299 -0.002 c -1.6e-4,-0.276119 -0.22411,-0.499837 -0.50023,-0.49971 -0.27592,1.6e-4 -0.49955,0.223794 -0.49971,0.49971 v 6.49986 z m 8.99997,-4.9997 0.99993,-5.1e-4 c 0,-1 0.99994,-1.00046 0.99994,-1.00046 v 0.001 h 5.00022 v -0.001 c 0,0 0.99993,4.6e-4 0.99993,1.00046 l 0.99994,5.1e-4 c 0,0 -3.9e-4,-2.00039 -2.00039,-2.00039 v 5.2e-4 h -4.99918 v -5.2e-4 c -2,0 -2.00039,2.00039 -2.00039,2.00039 z m 8.99996,0 h -0.99994 v 0.99994 h 0.99994 z m 0,0.99994 -0.99994,5.2e-4 c 0,1 -0.99993,1.00045 -0.99993,1.00045 l -5.2e-4,0.99943 c 2,0 2.00039,-2.0004 2.00039,-2.0004 z m -2.00039,2.0004 v -1.00046 h -4.49947 c -0.27632,-1.27e-4 -0.50036,0.223908 -0.50023,0.50023 1.6e-4,0.276119 0.22411,0.499837 0.50023,0.49971 v 5.2e-4 z m 5.00073,-5.00073 c -2,0 -2.0004,2.00039 -2.0004,2.00039 l 0.99994,-5.1e-4 c 0,-1 0.99994,-1.00046 0.99994,-1.00046 v 0.001 h 1.08727 c 0.27632,1.27e-4 0.50035,-0.223902 0.50023,-0.50022 -1.6e-4,-0.276119 -0.22411,-0.499837 -0.50023,-0.49971 h -1.08675 z m -2.0004,2.00039 v 4.9997 h 0.99994 v -4.9997 z m 0.99994,4.9997 -0.9803,5.1e-4 c 0,1 -0.99994,1.00046 -0.99994,1.00046 l -5.2e-4,0.99942 c 2,0 2.0004,-2.00039 2.0004,-2.00039 z"
       sodipodi:nodetypes="cccccccccccccscccccccccccccccsccccsscccccccccccsccccccccccccccccccccccccccccccccscccccccccccssscccccccccccsccccccccccccccccccccccccccccccccccccccccccccccccccccccccccccccccc"
       inkscape:export-filename="Laser Tracker.png"
       inkscape:export-xdpi="369.59375"
       inkscape:export-ydpi="369.59375" /><path
       d="m 65.645511,73.645768 c -0.27612,-1.2e-4 -0.500057,0.22359 -0.500227,0.49971 -1.3e-4,0.27632 0.223897,0.50023 0.500227,0.50023 h 0.0031 4.4974 c 0.004,0 0.999939,0.002 0.999939,0.99994 v 12.99972 c 0,0 -1.22e-4,2.00018 1.999878,2.0004 l 3.999897,5e-5 c 0,0 1.713293,0.0164 2.508233,-0.28169 0.79493,-0.2981 1.345717,-0.86357 2.595707,-2.11357 l 0.895552,-0.89555 v 0.002 l 3.200839,-3.20291 0.100252,-0.10025 0.699699,-0.6997 v 2.29185 H 85.64584 c -0.27613,1.6e-4 -0.499851,0.22411 -0.499711,0.50023 1.6e-4,0.27592 0.223791,0.49955 0.499711,0.49971 h 1.500167 v 2.0004 c 2e-5,0.01 0.005,1.99987 1.999878,1.99987 h 7.000086 c 2,0 1.99988,-2.00039 1.99988,-2.00039 v -0.99994 c 0,0 1.2e-4,-1.99988 -1.99988,-1.99988 h -5.00021 c -0.003,0 -0.999936,-0.001 -0.999936,-0.99994 v -1.00045 c 0,-1 0.999936,-0.99994 0.999936,-0.99994 h 8.00003 v 5.99963 c 0,0 3.9e-4,2.0004 2.000389,2.0004 h 6.99957 c 2,0 2.0004,-2.0004 2.0004,-2.0004 v -4.99969 c 0,-0.99846 0.99689,-0.99994 0.99994,-0.99994 h 2.49959 c 0.27612,1.2e-4 0.50006,-0.22359 0.50022,-0.49971 1.3e-4,-0.27632 -0.2239,-0.50035 -0.50022,-0.50023 h -0.002 -5.2e-4 l -2.49752,5.2e-4 c -1.99863,-1e-5 -1.99988,1.99715 -1.99988,1.99987 v 4.9997 c 0,1 -1.00046,1.00045 -1.00046,1.00045 h -6.99957 c 0,0 -0.99994,-4.5e-4 -0.99994,-1.00045 v -5.99963 h 5.99964 c 0,0 0.99994,-7e-5 0.99994,0.99993 v 0.99994 c 0,0.99856 -0.99704,0.99994 -0.99994,0.99994 h -4.49954 c -0.27613,1.6e-4 -0.49985,0.22463 -0.49971,0.50075 1.6e-4,0.27592 0.2238,0.49955 0.49971,0.49971 h 4.49999 c 1.99999,0 1.99987,-2.0004 1.99987,-2.0004 v -0.99994 c 0,0 1.2e-4,-1.99987 -1.99987,-1.99987 H 91.145761 c -1.998407,0 -1.999875,1.99671 -1.999875,1.99987 v 0.99994 c 0,0 -1.22e-4,2.0004 1.999875,2.0004 h 5.00021 c 0,0 0.99994,-6e-5 0.99994,0.99994 v 0.99942 c 0,1 -0.99994,1.00045 -0.99994,1.00045 h -7.000085 c 0,0 -0.999579,-4.9e-4 -0.999939,-0.99993 v -6.49987 -5.1e-4 c -1.6e-4,-0.27592 -0.223791,-0.49955 -0.499711,-0.49971 -0.13476,-1.8e-4 -0.263888,0.054 -0.358118,0.15037 l -4.1429,4.14187 v 0.002 c -0.60783,0.60783 -1.153456,1.15396 -1.602486,1.603 -1.24999,1.25 -1.70227,1.68273 -2.24069,1.88464 -0.53841,0.20191 -2.156317,0.21769 -2.156317,0.21769 l -3.999896,-1.3e-4 c 0,0 -0.999939,-4.6e-4 -0.999939,-1.00046 v -12.99958 c 0,0 1.22e-4,-1.99988 -1.999878,-1.99988 z"
       style="baseline-shift:baseline;display:inline;overflow:visible;vector-effect:none;fill:#fcd804;fill-opacity:1;stroke-width:2;stroke-linecap:round;stroke-linejoin:round;enable-background:accumulate;stop-color:#000000"
       id="path58-9"
       sodipodi:nodetypes="ccscssccccccccccccccccssccsssscccsscssccscccssccsccssscccsccssscscssccccsccccccccscsc" /><g
       id="g92"
       transform="translate(1.9246992,0.05001952)"><path
         id="path35-2-5"
         style="fill:#04fc92;fill-opacity:1;stroke-width:0.0210329;stroke-linejoin:round"
         inkscape:transform-center-x="-0.97959941"
         inkscape:transform-center-y="-0.9783865"
         d="m 181.95101,77.668589 2.01426,2.01427 c -0.0391,0.0515 -0.075,0.10536 -0.10761,0.161431 l -1.083,-0.448967 -0.15758,0.381674 1.08239,0.448294 c -0.0159,0.06235 -0.0288,0.125671 -0.0371,0.189635 l -2.84945,-6.12e-4 v 0.0012 l 6.5e-4,0.411824 2.84943,6.36e-4 c 0.008,0.06359 0.0203,0.126717 0.0364,0.188886 l -1.08237,0.449603 0.15758,0.380416 1.08367,-0.448319 c 0.0325,0.05486 0.0674,0.108975 0.10635,0.160195 l -2.01364,2.014906 0.29142,0.291427 2.01427,-2.01427 c 0.0515,0.03915 0.10536,0.07507 0.16143,0.107605 l -0.44896,1.083017 0.38105,0.158277 0.44896,-1.083019 c 0.0624,0.01584 0.12567,0.02881 0.18962,0.03715 l 6.4e-4,-0.493804 -6.5e-4,-6.48e-4 0.001,-0.0075 -0.001,0.0075 6.5e-4,3.343865 0.41182,6.36e-4 6.4e-4,-6.36e-4 -6.5e-4,-2.85071 c 0.0636,-0.0087 0.12672,-0.02032 0.18888,-0.03641 l 0.44958,1.083692 0.38108,-0.158276 -0.44894,-1.08434 c 0.0553,-0.03279 0.10935,-0.06795 0.16073,-0.106856 l 2.01554,2.015555 0.29142,-0.291416 -2.01555,-2.015541 c 0.0393,-0.0515 0.075,-0.105359 0.1076,-0.16143 l 1.08304,0.448942 0.15828,-0.381063 -1.08368,-0.448294 c 0.0159,-0.0621 0.029,-0.125322 0.0379,-0.189024 l 6.7e-4,-6.48e-4 2.84942,6.48e-4 -2e-5,-0.412447 -2.84942,-6.49e-4 c -0.008,-0.06408 -0.0212,-0.127777 -0.0379,-0.190245 l 1.08303,-0.448967 -0.15828,-0.381065 -1.08302,0.448969 c -0.0328,-0.05523 -0.0679,-0.10935 -0.10685,-0.160733 l 5.11106,-5.111046 -0.29142,-0.291415 -5.11169,5.11041 c -0.0514,-0.0389 -0.10499,-0.07469 -0.16073,-0.106855 l 0.4483,-1.083654 -0.38041,-0.157578 -0.44897,1.083044 c -0.0626,-0.01584 -0.12621,-0.0293 -0.19024,-0.0379 l -1e-5,-2.848789 -0.41245,-2.5e-5 v 2.848814 c -0.0641,0.0087 -0.12778,0.0212 -0.19025,0.0379 l -0.44768,-1.083019 -0.38169,0.157565 0.449,1.083006 c -0.0566,0.03191 -0.10973,0.06833 -0.16143,0.107604 l -2.01428,-2.014269 z m 2.51512,2.224328 c 0.0943,-0.09452 0.20618,-0.16966 0.3292,-0.221616 0.12343,-0.05187 0.25556,-0.07943 0.38938,-0.08067 0.13357,-0.0012 0.26593,0.02332 0.39006,0.07244 l 0.0329,0.01246 c 0.11832,0.0515 0.22581,0.124561 0.317,0.215868 0.0912,0.09126 0.1644,0.198786 0.21587,0.317001 l 0.0125,0.03291 c 0.048,0.12132 0.0726,0.250581 0.0725,0.381077 -2.5e-4,0.130583 -0.025,0.259895 -0.0736,0.381076 l -0.008,0.02033 c -0.0515,0.121693 -0.1262,0.232377 -0.21967,0.326028 l -6.4e-4,6.36e-4 c -0.0942,0.09377 -0.20542,0.168786 -0.32792,0.220331 l 0.18254,-0.07507 10e-4,-5.99e-4 6.5e-4,6.49e-4 -0.18504,0.07506 -0.0159,0.0075 c -0.11833,0.04763 -0.2445,0.07332 -0.37213,0.07507 h -0.0176 c -0.1269,-7.48e-4 -0.25262,-0.02494 -0.37083,-0.0712 l -0.0429,-0.01758 c -0.11572,-0.05137 -0.2211,-0.123689 -0.31066,-0.21325 l -0.007,-0.0075 c -0.087,-0.0884 -0.15722,-0.191642 -0.20747,-0.304881 l -0.0176,-0.04289 c -0.14916,-0.381176 -0.0588,-0.814483 0.23057,-1.104153 z m 0.35738,0.728849 0.37148,0.371476 0.37211,-0.372112 -0.37149,-0.371475 z m 0.95871,-0.879407 -0.001,0.0075 -6.4e-4,-6.48e-4 z m -1.89759,-9.093551 -1.29746,0.260181 a 0.17529185,0.17529185 0 0 0 -0.14039,0.174573 l 0.014,1.03727 c -0.46071,0.148464 -0.90788,0.336988 -1.33853,0.558005 l -0.72916,-0.746279 a 0.17529185,0.17529185 0 0 0 -0.22251,-0.02406 l -1.09889,0.736032 a 0.17529185,0.17529185 0 0 0 -0.065,0.215656 l 0.40739,0.955128 c -0.36841,0.312936 -0.71055,0.655259 -1.02359,1.023568 l -0.95511,-0.407372 a 0.17529185,0.17529185 0 0 0 -0.21567,0.06508 l -0.73601,1.098879 a 0.17529185,0.17529185 0 0 0 0.0241,0.222513 l 0.74287,0.725758 c -0.22101,0.430925 -0.40619,0.880928 -0.55458,1.34194 l -1.0407,-0.01396 a 0.17529185,0.17529185 0 0 0 -0.17107,0.140396 l -0.26017,1.300856 a 0.17529185,0.17529185 0 0 0 0.10948,0.195133 l 0.96196,0.386837 c -0.0394,0.48368 -0.0394,0.967822 0,1.451489 l -0.96538,0.386824 a 0.17529185,0.17529185 0 0 0 -0.10599,0.195133 l 0.26018,1.297452 a 0.17529185,0.17529185 0 0 0 0.17106,0.140396 l 1.0407,-0.01 c 0.14846,0.461262 0.33689,0.907374 0.558,1.338537 l -0.74629,0.729148 a 0.17529185,0.17529185 0 0 0 -0.0241,0.222539 l 0.73602,1.098878 a 0.17529185,0.17529185 0 0 0 0.21225,0.06496 l 0.95852,-0.410801 c 0.31301,0.368683 0.65515,0.713713 1.0236,1.026997 l -0.41082,0.955104 a 0.17529185,0.17529185 0 0 0 0.065,0.215681 l 1.10231,0.732589 a 0.17529185,0.17529185 0 0 0 0.22252,-0.02406 l 0.72574,-0.742864 c 0.43198,0.221429 0.8798,0.406088 1.34196,0.554564 l -0.0141,1.0407 a 0.17529185,0.17529185 0 0 0 0.14039,0.174572 l 1.29745,0.256753 a 0.17529185,0.17529185 0 0 0 0.19855,-0.106232 L 184.47,89.517923 c 0.48341,0.03941 0.96807,0.03941 1.45149,0 l 0.38341,0.965378 a 0.17529185,0.17529185 0 0 0 0.19512,0.109598 l 1.30087,-0.260168 a 0.17529185,0.17529185 0 0 0 0.1404,-0.174573 l -0.0103,-1.040699 c 0.46085,-0.148276 0.90773,-0.333647 1.33852,-0.554565 l 0.72574,0.746281 a 0.17529185,0.17529185 0 0 0 0.22253,0.02406 l 1.10231,-0.739422 a 0.17529185,0.17529185 0 0 0 0.0618,-0.212266 l -0.40738,-0.955103 c 0.36813,-0.312973 0.71077,-0.655297 1.02357,-1.023568 l 0.9551,0.407372 a 0.17529185,0.17529185 0 0 0 0.21567,-0.06496 l 0.73603,-1.098879 a 0.17529185,0.17529185 0 0 0 -0.0241,-0.222538 l -0.74285,-0.729148 c 0.2204,-0.43034 0.40654,-0.878273 0.55458,-1.338537 l 1.04069,0.01396 a 0.17529185,0.17529185 0 0 0 0.17458,-0.143725 l 0.25674,-1.297452 a 0.17529185,0.17529185 0 0 0 -0.10612,-0.195133 l -0.96536,-0.386824 c 0.0394,-0.483668 0.0394,-0.96781 0,-1.451489 l 0.96536,-0.386837 a 0.17529185,0.17529185 0 0 0 0.10961,-0.195133 l -0.26017,-1.29744 a 0.17529185,0.17529185 0 0 0 -0.17458,-0.143725 l -1.0407,0.01409 c -0.14845,-0.460662 -0.33358,-0.907922 -0.55457,-1.338523 l 0.74627,-0.725732 a 0.17529185,0.17529185 0 0 0 0.0241,-0.225956 l -0.73578,-1.098869 a 0.17529185,0.17529185 0 0 0 -0.21566,-0.06496 l -0.95854,0.410788 c -0.3135,-0.368745 -0.65458,-0.713774 -1.02357,-1.026984 l 0.41078,-0.955129 a 0.17529185,0.17529185 0 0 0 -0.065,-0.215656 l -1.09888,-0.73259 a 0.17529185,0.17529185 0 0 0 -0.22251,0.02045 l -0.72917,0.746293 c -0.43091,-0.220794 -0.87758,-0.409792 -1.33852,-0.558005 l 0.014,-1.040688 A 0.17529185,0.17529185 0 0 0 187.805,70.909689 l -1.30086,-0.260181 a 0.17529185,0.17529185 0 0 0 -0.19514,0.109599 l -0.38682,0.96539 c -0.4834,-0.03965 -0.96806,-0.04264 -1.4515,-0.0037 l -0.38684,-0.961962 a 0.17529185,0.17529185 0 0 0 -0.19855,-0.109599 z m -0.0718,0.373171 0.37656,0.941388 a 0.17529185,0.17529185 0 0 0 0.16091,0.109599 h 0.004 a 0.17529185,0.17529185 0 0 0 0.0176,-0.0037 c 0.54937,-0.05274 1.10072,-0.05 1.65004,0.0037 a 0.17529185,0.17529185 0 0 0 0.0175,0 0.17529185,0.17529185 0 0 0 0.16424,-0.109599 l 0.37657,-0.941388 1.0133,0.201966 -0.014,1.013294 a 0.17529185,0.17529185 0 0 0 0.12672,0.16774 c 0.52806,0.161068 1.03939,0.374068 1.52681,0.633315 a 0.17529185,0.17529185 0 0 0 0.0821,0.02045 0.17529185,0.17529185 0 0 0 0.12672,-0.05137 l 0.7052,-0.725745 0.85928,0.575113 -0.40054,0.931151 a 0.17529185,0.17529185 0 0 0 0.0513,0.205394 c 0.42631,0.35089 0.81613,0.741305 1.16735,1.167343 a 0.17529185,0.17529185 0 0 0 0.20539,0.04788 l 0.93115,-0.397124 0.57513,0.85927 -0.72576,0.705197 a 0.17529185,0.17529185 0 0 0 -0.0548,0.126729 0.17529185,0.17529185 0 0 0 0.0205,0.08217 c 0.2595,0.487097 0.47186,0.999043 0.63331,1.526812 a 0.17529185,0.17529185 0 0 0 0.17124,0.123189 l 1.0133,-0.01 0.20199,1.013306 -0.94141,0.376562 a 0.17529185,0.17529185 0 0 0 -0.10961,0.178014 c 0.0531,0.549639 0.0531,1.103816 0,1.653468 a 0.17529185,0.17529185 0 0 0 0.10961,0.181442 l 0.93796,0.376549 -0.19854,1.01332 -1.0133,-0.01397 a 0.17529185,0.17529185 0 0 0 -0.17124,0.12319 c -0.16107,0.528342 -0.37402,1.042507 -0.63331,1.530214 a 0.17529185,0.17529185 0 0 0 -0.0205,0.08217 0.17529185,0.17529185 0 0 0 0.0548,0.126719 l 0.72233,0.705221 -0.5717,0.859245 -0.93115,-0.397111 a 0.17529185,0.17529185 0 0 0 -0.20539,0.04788 c -0.35089,0.426325 -0.74131,0.81957 -1.16735,1.170785 a 0.17529185,0.17529185 0 0 0 -0.0513,0.201978 l 0.39709,0.931151 -0.85583,0.575113 -0.70861,-0.725746 a 0.17529185,0.17529185 0 0 0 -0.20885,-0.0308 c -0.48742,0.259247 -0.99874,0.468793 -1.52678,0.629887 a 0.17529185,0.17529185 0 0 0 -0.12319,0.171242 l 0.0103,1.013307 -1.01332,0.201966 -0.37313,-0.941414 a 0.17529185,0.17529185 0 0 0 -0.18143,-0.109598 c -0.54937,0.05311 -1.10069,0.05311 -1.65005,0 a 0.17529185,0.17529185 0 0 0 -0.18145,0.109598 l -0.37656,0.937997 -1.0133,-0.198549 0.0103,-1.013307 a 0.17529185,0.17529185 0 0 0 -0.12319,-0.171242 c -0.52835,-0.161082 -1.0391,-0.370591 -1.52681,-0.629887 a 0.17529185,0.17529185 0 0 0 -0.20882,0.0308 l -0.70862,0.722329 -0.85927,-0.571696 0.40054,-0.931151 a 0.17529185,0.17529185 0 0 0 -0.0514,-0.201978 c -0.42569,-0.350977 -0.81669,-0.744809 -1.16737,-1.170785 a 0.17529185,0.17529185 0 0 0 -0.20195,-0.04788 l -0.93459,0.397111 -0.57169,-0.859245 0.72574,-0.705221 a 0.17529185,0.17529185 0 0 0 0.0308,-0.208824 c -0.25959,-0.48767 -0.47196,-0.998419 -0.63331,-1.526799 a 0.17529185,0.17529185 0 0 0 -0.16774,-0.126717 l -1.0133,0.01396 -0.20199,-1.013307 0.93801,-0.376562 a 0.17529185,0.17529185 0 0 0 0.10959,-0.181443 c -0.0531,-0.549638 -0.0531,-1.100386 0,-1.65005 a 0.17529185,0.17529185 0 0 0 -0.10598,-0.18143 l -0.94142,-0.376551 0.20199,-1.013319 1.01329,0.01409 a 0.17529185,0.17529185 0 0 0 0.16773,-0.126731 c 0.16109,-0.528042 0.37408,-1.03939 0.63332,-1.526811 a 0.17529185,0.17529185 0 0 0 -0.0342,-0.205382 l -0.72231,-0.708637 0.57167,-0.859271 0.93115,0.40054 a 0.17529185,0.17529185 0 0 0 0.20541,-0.05137 c 0.35119,-0.426349 0.74098,-0.816166 1.16736,-1.167342 a 0.17529185,0.17529185 0 0 0 0.0513,-0.205407 l -0.3971,-0.931139 0.85925,-0.575113 0.7052,0.725745 a 0.17529185,0.17529185 0 0 0 0.20882,0.0308 c 0.48709,-0.259508 0.99904,-0.471873 1.52681,-0.633316 a 0.17529185,0.17529185 0 0 0 0.12319,-0.167739 l -0.0125,-1.013331 z" /><path
         style="fill:url(#linearGradient92);stroke:none;stroke-width:0.350548;stroke-linecap:round;stroke-linejoin:round;stroke-dasharray:none;stroke-opacity:1;paint-order:stroke markers fill"
         d="m 191.24438,74.280461 -5.1117,5.110409 -0.16073,-0.106855 0.4483,-1.083653 -0.38041,-0.157579 -0.44898,1.083044 -0.19023,-0.0379 -2e-5,-2.848789 -0.20623,-2.5e-5 0.004,-4.38282 0.84074,0.04102 0.43114,-1.075138 1.29885,0.257238 -0.0141,1.159364 1.55789,0.644886 0.80975,-0.826939 1.10141,0.73456 -0.45741,1.065175 z"
         id="path7-9" /><ellipse
         style="fill:none;fill-opacity:1;stroke:#04fc92;stroke-width:0.124686;stroke-linecap:round;stroke-linejoin:round;stroke-dasharray:none;stroke-opacity:1;paint-order:stroke markers fill"
         id="path9-6"
         cx="185.19577"
         cy="80.620934"
         rx="7.4811296"
         ry="7.4811306" /><ellipse
         style="fill:none;fill-opacity:1;stroke:#04fc92;stroke-width:0.124686;stroke-linecap:round;stroke-linejoin:round;stroke-dasharray:none;stroke-opacity:1;paint-order:stroke markers fill"
         id="path10-2"
         cx="185.19577"
         cy="80.620934"
         rx="6.2342749"
         ry="6.2342753" /><ellipse
         style="fill:none;fill-opacity:1;stroke:#04fc92;stroke-width:0.124686;stroke-linecap:round;stroke-linejoin:round;stroke-dasharray:none;stroke-opacity:1;paint-order:stroke markers fill"
         id="path11-1"
         cx="185.19577"
         cy="80.620934"
         rx="4.9874201"
         ry="4.9874206" /></g></g></svg>
