<?xml version="1.0" encoding="UTF-8" standalone="no"?>
<!-- Created with Inkscape (http://www.inkscape.org/) -->

<svg
   width="2.9133863in"
   height="1.8110158in"
   viewBox="0 0 74.000016 45.999802"
   version="1.1"
   id="svg1"
   xml:space="preserve"
   inkscape:version="1.4.4 (dcaf3e7d9e, 2026-05-05)"
   sodipodi:docname="logos.svg"
   inkscape:export-filename="horizontal main.png"
   inkscape:export-xdpi="317.62701"
   inkscape:export-ydpi="317.62701"
   xmlns:inkscape="http://www.inkscape.org/namespaces/inkscape"
   xmlns:sodipodi="http://sodipodi.sourceforge.net/DTD/sodipodi-0.dtd"
   xmlns="http://www.w3.org/2000/svg"
   xmlns:svg="http://www.w3.org/2000/svg"><sodipodi:namedview
     id="namedview1"
     pagecolor="#505050"
     bordercolor="#ffffff"
     borderopacity="1"
     inkscape:showpageshadow="0"
     inkscape:pageopacity="0"
     inkscape:pagecheckerboard="false"
     inkscape:deskcolor="#505050"
     inkscape:document-units="mm"
     showguides="false"
     showgrid="true"
     inkscape:zoom="2"
     inkscape:cx="1038.25"
     inkscape:cy="-1072"
     inkscape:window-width="1920"
     inkscape:window-height="1012"
     inkscape:window-x="0"
     inkscape:window-y="0"
     inkscape:window-maximized="1"
     inkscape:current-layer="g78"
     inkscape:export-bgcolor="#ffffff00"><inkscape:grid
       id="grid71"
       units="mm"
       originx="-383.50021"
       originy="114.25387"
       spacingx="1"
       spacingy="1"
       empcolor="#0099e5"
       empopacity="0.30196078"
       color="#0099e5"
       opacity="0.14901961"
       empspacing="4"
       enabled="true"
       visible="true"
       dotted="false"
       snapvisiblegridlinesonly="false" /><inkscape:page
       x="0"
       y="-3.5900695e-20"
       width="74.000015"
       height="45.999802"
       id="page1"
       margin="0"
       bleed="0" /></sodipodi:namedview><defs
     id="defs1" /><g
     inkscape:label="Layer 1"
     inkscape:groupmode="layer"
     id="layer1"
     transform="translate(-454.64604,-8.3919029)"><path
       d="m 456.64601,8.3919065 c -0.27612,-1.2e-4 -0.50005,0.223591 -0.50022,0.499711 -1.3e-4,0.27632 0.22389,0.500228 0.50022,0.500228 h 0.003 1.49695 c 0.004,0 0.99994,0.002 0.99994,0.9999395 v 12.99972 c 0,0 -1.2e-4,2.000179 1.99988,2.000399 l 3.9999,5e-5 c 0,0 1.71329,0.0164 2.50823,-0.28169 0.79493,-0.2981 1.34572,-0.863569 2.59571,-2.113569 l 0.89555,-0.89555 v 0.002 l 3.20084,-3.20291 0.10025,-0.10025 0.6997,-0.699699 v 2.291849 h -1.50017 c -0.27613,1.6e-4 -0.49985,0.22411 -0.49971,0.50023 1.6e-4,0.27592 0.22379,0.49955 0.49971,0.49971 h 1.50017 v 2.0004 c 2e-5,0.01 0.005,1.999869 1.99988,1.999869 h 7.00009 c 2,0 1.99987,-2.000389 1.99987,-2.000389 v -0.99994 c 0,0 1.3e-4,-1.99988 -1.99987,-1.99988 h -5.00021 c -0.003,0 -0.99994,-0.001 -0.99994,-0.99994 v -1.000449 c 0,-1 0.99994,-0.99994 0.99994,-0.99994 h 8.00002 v 5.999629 c 0,0 4e-4,2.000399 2.0004,2.000399 h 6.99957 c 2,0 2.0004,-2.000399 2.0004,-2.000399 v -4.999689 c 0,-0.99846 0.99689,-0.99994 0.99994,-0.99994 h 2.49959 c 0.27612,1.2e-4 0.50006,-0.22359 0.50022,-0.49971 1.3e-4,-0.27632 -0.2239,-0.50035 -0.50022,-0.50023 h -0.002 -5.2e-4 l -2.49752,5.2e-4 c -1.99863,-10e-6 -1.99988,1.99715 -1.99988,1.99987 v 4.999699 c 0,1 -1.00046,1.00045 -1.00046,1.00045 h -6.99957 c 0,0 -0.99994,-4.5e-4 -0.99994,-1.00045 v -5.999629 h 5.99963 c 0,0 0.99994,-7e-5 0.99994,0.99993 v 0.999939 c 0,0.99856 -0.99704,0.99994 -0.99994,0.99994 h -4.49953 c -0.27613,1.6e-4 -0.49985,0.22463 -0.49971,0.50075 1.6e-4,0.27592 0.2238,0.49955 0.49971,0.49971 h 4.49998 c 2,0 1.99988,-2.0004 1.99988,-2.0004 v -0.999939 c 0,0 1.2e-4,-1.99987 -1.99988,-1.99987 h -15.00011 c -1.99841,0 -1.99988,1.99671 -1.99988,1.99987 v 0.999939 c 0,0 -1.2e-4,2.0004 1.99988,2.0004 h 5.00021 c 0,0 0.99994,-6e-5 0.99994,0.99994 v 0.99942 c 0,1 -0.99994,1.00045 -0.99994,1.00045 h -7.00009 c 0,0 -0.99958,-4.9e-4 -0.99994,-0.99993 v -6.499869 -5.1e-4 c -1.6e-4,-0.27592 -0.22379,-0.49955 -0.49971,-0.49971 -0.13476,-1.8e-4 -0.26389,0.054 -0.35812,0.15037 l -4.1429,4.141869 v 0.002 c -0.60783,0.60783 -1.15346,1.15396 -1.60249,1.603 -1.24999,1.25 -1.70227,1.68273 -2.24069,1.88464 -0.53841,0.20191 -2.15631,0.21769 -2.15631,0.21769 l -3.9999,-1.3e-4 c 0,0 -0.99994,-4.6e-4 -0.99994,-1.00046 v -12.99958 c 0,0 1.2e-4,-1.9998785 -1.99988,-1.9998785 z"
       style="baseline-shift:baseline;display:inline;overflow:visible;vector-effect:none;fill:#fcd804;fill-opacity:1;stroke-width:2;stroke-linecap:round;stroke-linejoin:round;enable-background:accumulate;stop-color:#000000"
       id="path58-5"
       sodipodi:nodetypes="ccscssccccccccccccccccssccsssscccsscssccscccssccsccssscccsccssscscssccccsccccccccscsc"
       inkscape:export-filename="path58-5.png"
       inkscape:export-xdpi="175.74052"
       inkscape:export-ydpi="175.74052" /><path
       id="path112-6"
       style="fill:#fcd804;fill-opacity:1;stroke-width:0"
       d="m 456.64602,28.391733 c -0.27612,-1.27e-4 -0.50007,0.223592 -0.50023,0.499712 -1.3e-4,0.276321 0.22391,0.500354 0.50023,0.500227 h 2.50005 v 15.499832 c -1.3e-4,0.27612 0.22359,0.50007 0.49971,0.50023 0.27632,1.3e-4 0.50036,-0.22391 0.50023,-0.50023 v -6.79235 l 5.09375,5.09323 c 0.68384,0.68384 1.36465,1.38612 2.06241,1.78904 0.69776,0.40292 1.34342,0.41031 1.84381,0.41031 h 6.99957 c 2,0 2.0004,-2.00039 2.0004,-2.00039 v -5.99964 h 0.99994 v 5.99964 c 0,0 3.9e-4,2.00039 2.00039,2.00039 h 4.99918 c 2,0 2.00039,-2.00039 2.00039,-2.00039 v -4.49999 c -1.6e-4,-0.27612 -0.2241,-0.49983 -0.50022,-0.49971 -0.27592,1.6e-4 -0.49955,0.22379 -0.49971,0.49971 v 4.49999 c 0,0.98691 -0.97442,1.00027 -0.99994,1.00045 v -5.2e-4 h -5.00022 v 5.2e-4 c -0.0258,-1.8e-4 -0.99993,-0.0137 -0.99993,-1.00045 v -5.99964 h 8.99996 v 5.99964 c 0,0 4e-4,2.00039 2.0004,2.00039 h 8.99945 c 0.74022,0 1.20641,-0.27389 1.50017,-0.61908 0.29377,0.3451 0.76009,0.61908 1.50016,0.61908 h 0.99994 c 0.74629,-1.3e-4 1.21366,-0.27906 1.50689,-0.62838 -0.002,0.003 -0.004,0.006 -0.007,0.009 0.29369,0.3452 0.75963,0.61946 1.49965,0.6196 h 5.1e-4 9.49917 5.1e-4 c 0.27612,-1.6e-4 0.49984,-0.22411 0.49971,-0.50023 1.3e-4,-0.27612 -0.22359,-0.50007 -0.49971,-0.50023 h -5.1e-4 -7.4998 v -5.99963 c 0,-0.98771 0.97645,-1.0003 1.00045,-1.00046 v 5.2e-4 h 8.00003 v 1.99936 h -5.2e-4 c 0,0 4e-4,2.00039 2.0004,2.00039 h 4.99969 c 0.0161,7e-5 1.00033,0.008 1.00046,0.99994 h -5.2e-4 v 0.99994 h 5.2e-4 c -1.3e-4,0.99183 -0.98475,1.00039 -1.00046,1.00046 v -5.2e-4 h -6.49986 c -0.27612,1.6e-4 -0.49984,0.22411 -0.49971,0.50023 -1.3e-4,0.27612 0.22359,0.50007 0.49971,0.50023 h 0.002 6.49831 c 2,0 2.0004,-2.0004 2.0004,-2.0004 v -0.99942 -5.2e-4 c 0,-0.003 -0.002,-1.99987 -2.0004,-1.99987 h -4.99969 c -0.0157,-7e-5 -1.00033,-0.008 -1.00046,-0.99994 h 5.2e-4 v -1.99988 l 7.49964,-2.5e-4 c 0.27632,1.3e-4 0.50036,-0.22391 0.50023,-0.50023 1.3e-4,-0.27552 -0.22265,-0.49922 -0.49817,-0.50023 l -16.50219,2.5e-4 c -2,3e-5 -2.00039,2.0004 -2.00039,2.0004 v 5.99963 h -0.99994 v 5.2e-4 c -0.0161,-7e-5 -0.99994,-0.009 -0.99994,-1.00046 v -2.49959 c 1.2e-4,-0.27612 -0.22359,-0.50006 -0.49971,-0.50022 -0.27632,-1.3e-4 -0.50035,0.2239 -0.50023,0.50022 v 2.49959 c 0,0.9985 -0.99695,1.00046 -0.99994,1.00046 h -0.99993 c 0,0 -0.98859,-7.8e-4 -1.00046,-0.98289 l 5.2e-4,-0.0176 v -9.999905 h 1.49965 c 0.27612,1.22e-4 0.50007,-0.223601 0.50022,-0.49972 1.2e-4,-0.276314 -0.22391,-0.500342 -0.50022,-0.50022 h -1.49965 v -3.500048 c -1.6e-4,-0.276119 -0.22411,-0.499838 -0.50023,-0.499711 -0.27612,-1.27e-4 -0.50007,0.223592 -0.50023,0.499711 v 3.500048 h -1.49965 c -0.27632,-1.27e-4 -0.50035,0.223902 -0.50023,0.50022 1.5e-4,0.276123 0.22411,0.499847 0.50023,0.49972 h 1.49965 v 9.999905 c 0,0 1.8e-4,0.006 5.2e-4,0.0176 -0.0117,0.9824 -1.00046,0.98289 -1.00046,0.98289 v -5.2e-4 h -8.99997 v 5.2e-4 c -0.0255,-1.8e-4 -0.99993,-0.0136 -0.99993,-1.00046 v -5.99963 h 6.00015 v -5.2e-4 c 0,0 1.00045,4.6e-4 1.00045,1.00046 h -5.2e-4 v 4.49998 c 1.6e-4,0.27612 0.22411,0.49984 0.50023,0.49971 0.27592,-1.6e-4 0.49955,-0.22379 0.49971,-0.49971 v -4.49998 h 5.2e-4 c 0,0 -3.9e-4,-2.0004 -2.00039,-2.0004 h -16.00006 v -7.499803 c -1.6e-4,-0.275916 -0.22379,-0.499551 -0.49971,-0.499711 -0.27612,-1.27e-4 -0.50007,0.223592 -0.50023,0.499711 v 7.499803 h -8.00003 c -2,0 -2.00039,2.0004 -2.00039,2.0004 h 5.1e-4 v 4.49998 c 1.6e-4,0.27592 0.22379,0.49955 0.49971,0.49971 0.27612,1.3e-4 0.50007,-0.22359 0.50023,-0.49971 v -4.49998 h -5.1e-4 c 0,-1 1.00045,-1.00046 1.00045,-1.00046 v 5.2e-4 h 6.00015 v 5.99963 c 0,0.98678 -0.97419,1.00028 -0.99994,1.00046 v -5.2e-4 h -7.00009 c -0.50039,0 -0.85761,0.006 -1.3441,-0.27492 -0.48647,-0.28091 -1.17135,-0.94708 -1.85518,-1.63091 l -0.002,0.002 -5.0922,-5.09529 h 5.2927 c 2,0 2.00039,-2.0004 2.00039,-2.0004 v -4.999699 c 0,0 -3.9e-4,-2.000395 -2.00039,-2.000395 l 5.2e-4,-5.17e-4 z m 9.49963,0.999423 c 0,0 1.00045,4.55e-4 1.00045,1.000455 h -5.1e-4 v 4.999703 h 5.1e-4 c 0,1 -1.00045,1.00045 -1.00045,1.00045 v -5.1e-4 h -5.99964 v -6.999582 h 5.99964 z m 39.50043,7.000098 c -0.27632,-1.3e-4 -0.50035,0.2239 -0.50023,0.50022 v 1.99988 c -1.3e-4,0.27632 0.22391,0.50036 0.50023,0.50023 0.27612,-1.6e-4 0.49984,-0.22411 0.49971,-0.50023 v -1.99988 c 1.2e-4,-0.27612 -0.22359,-0.50006 -0.49971,-0.50022 z m -31.00018,3.00033 c -0.13252,3.8e-4 -0.25947,0.0533 -0.35295,0.14728 l -1.99988,1.99988 c -0.0939,0.0935 -0.14689,0.22043 -0.14727,0.35295 1.6e-4,0.27612 0.2241,0.49983 0.50022,0.49971 0.13255,3e-5 0.25969,-0.0526 0.35347,-0.14625 l 5.2e-4,5.2e-4 1.99988,-1.99988 -5.2e-4,-5.2e-4 c 0.0938,-0.0939 0.14641,-0.22125 0.14624,-0.35398 -1.6e-4,-0.27592 -0.22379,-0.49955 -0.49971,-0.49971 z m 19.99982,0 c -0.13242,6.5e-4 -0.25916,0.0538 -0.35244,0.14779 l -5.1e-4,-5.1e-4 -1.99988,1.99988 c -0.0939,0.0935 -0.1469,0.22043 -0.14728,0.35295 1.6e-4,0.27612 0.22411,0.49984 0.50023,0.49971 0.13255,3e-5 0.25968,-0.0526 0.35346,-0.14625 l 5.2e-4,5.2e-4 2.0004,-1.99988 -5.2e-4,-5.2e-4 c 0.0938,-0.0939 0.14641,-0.22125 0.14624,-0.35398 -1.6e-4,-0.27612 -0.2241,-0.49983 -0.50022,-0.49971 z"
       sodipodi:nodetypes="cccccccccsssccccssccccsccccscccsscscccsccscsccscccccscccccccccscsccsscccccccsccccscccssccccccccccccccccccccccsccccccccccscccccsccccccccccsccsscccscccccccccccccccccccccccccccccccccccccccccccccc" /><path
       d="m 514.925,10.015061 -1.43263,0.285947 0.0141,1.28565 9.6e-4,0.0032 c -0.59257,0.180888 -1.16638,0.418226 -1.71356,0.708837 l -9.3e-4,-0.001 -9.5e-4,-10e-4 -0.89776,-0.919772 -1.21472,0.811795 0.5049,1.182726 9.3e-4,10e-4 c -0.47927,0.394045 -0.91954,0.833304 -1.31467,1.311682 l -1.1807,-0.506882 -0.81083,1.214717 0.91679,0.899765 c -0.29211,0.54765 -0.53079,1.122176 -0.71282,1.715583 l -1.28171,-0.0155 -0.2839,1.433654 1.18671,0.476885 c -0.005,0.04681 -0.0102,0.09403 -0.0141,0.141037 -0.0159,0.186112 -0.0252,0.372152 -0.03,0.55886 l 2.8193,-0.001 5.15875,-10e-4 c 0.0102,-0.06984 0.0244,-0.138905 0.0419,-0.206954 l -1.19574,-0.495866 0.17496,-0.419897 1.19472,0.494869 c 0.0357,-0.06171 0.0756,-0.121325 0.11897,-0.177988 l -2.22346,-2.223456 0.32191,-0.321927 2.22347,2.223458 h 9.4e-4 c 0.0566,-0.04334 0.11541,-0.08301 0.17701,-0.118997 l -0.4949,-1.194717 0.41992,-0.1749 0.49586,1.195706 c 0.0686,-0.01929 0.13848,-0.03229 0.20896,-0.04199 v -3.144241 h 0.45489 v 3.144239 c 0.0709,0.0098 0.14078,0.02266 0.20995,0.04199 l 0.49485,-1.195707 0.42092,0.174881 -0.49488,1.194719 c 0.0618,0.03574 0.12139,0.07565 0.178,0.118972 l 2.22344,-2.223457 0.32193,0.320914 -2.22346,2.224469 c 0.0429,0.05685 0.0835,0.116261 0.11897,0.177988 l 1.19573,-0.494869 0.17301,0.419896 -1.19569,0.495866 c 0.0196,0.06866 0.0323,0.138535 0.0419,0.208949 l 3.14524,0.0014 v 0.455877 h -3.14524 c -0.0102,0.06984 -0.0246,0.138905 -0.0419,0.206955 l 1.19569,0.496894 -0.17301,0.419895 -1.19573,-0.494882 c -0.036,0.06117 -0.0755,0.119583 -0.11897,0.176045 l 2.22447,2.225466 -0.32191,0.321904 -2.22447,-2.225446 h -9.5e-4 c -0.056,0.04334 -0.11579,0.08301 -0.17701,0.118984 l 0.49488,1.195709 -0.42088,0.17393 -0.49487,-1.195715 c -0.0691,0.01937 -0.13901,0.03229 -0.20996,0.04199 v 3.146238 h -0.45489 v -3.146245 c -0.0702,-0.0098 -0.14025,-0.0246 -0.20896,-0.04196 l -0.49588,1.196724 -0.41988,-0.173929 0.49487,-1.19672 c -0.0618,-0.03559 -0.12126,-0.07507 -0.17798,-0.117992 l -2.22348,2.223473 -0.32189,-0.32192 2.22345,-2.223455 c -0.0435,-0.05685 -0.083,-0.116287 -0.11897,-0.177986 l -1.19472,0.494876 -0.17494,-0.419893 0.5879,-0.243936 0.60783,-0.251954 c -0.0193,-0.06866 -0.0324,-0.138516 -0.0419,-0.20894 h -2.87032 -5.10874 c 0.005,0.2357 0.0193,0.471142 0.0408,0.705839 l -1.18568,0.473871 0.28491,1.432645 1.27569,-0.01356 c 0.18129,0.596101 0.41961,1.173324 0.71183,1.723578 l -0.91177,0.888767 0.81278,1.214718 1.16975,-0.49887 c 0.39595,0.481691 0.83757,0.923964 1.31867,1.320674 l -0.50086,1.167705 1.21567,0.810812 0.88877,-0.906792 c 0.55078,0.293719 1.12867,0.533464 1.72561,0.715844 l -0.0159,1.269689 1.43267,0.283925 0.47389,-1.177713 c 0.31033,0.03039 0.62195,0.04568 0.93377,0.04608 0.31215,-2.34e-4 0.62411,-0.0155 0.93478,-0.04608 l 0.46988,1.177713 1.43367,-0.284937 -0.0141,-1.268677 c 0.59729,-0.182248 1.17552,-0.422043 1.72657,-0.715844 l 0.8858,0.908783 1.21471,-0.812803 -0.4989,-1.167705 c 0.48153,-0.396959 0.92346,-0.839585 1.3197,-1.321684 l 1.16871,0.502879 0.81181,-1.215699 -0.9098,-0.890785 v -10e-4 c 0.29218,-0.549946 0.53058,-1.126821 0.71183,-1.72257 l 1.27568,0.0155 0.28395,-1.433657 -1.18572,-0.474879 c 0.0294,-0.306387 0.0436,-0.613995 0.0436,-0.921779 2.8e-4,-0.314127 -0.0159,-0.6281 -0.0449,-0.940783 l 1.18867,-0.474878 -0.28589,-1.432643 -1.28169,0.01356 c -0.18206,-0.593072 -0.42078,-1.167234 -0.71284,-1.714594 l 0.91876,-0.896774 -0.81178,-1.214712 -1.18172,0.504888 c -0.39482,-0.478395 -0.83475,-0.917661 -1.31369,-1.311744 v -10e-4 l -0.005,-0.0032 -0.004,-0.0032 0.0102,0.0057 0.50589,-1.18071 -1.2157,-0.811817 -0.89878,0.918784 h -9.4e-4 l -9.4e-4,0.001 c -0.54677,-0.290463 -1.12026,-0.527846 -1.7125,-0.708751 v -0.0015 l -0.0223,-0.0032 -0.004,-10e-4 -0.005,-0.0015 0.031,0.0059 0.0159,-1.284674 -1.43363,-0.284937 -0.47891,1.193712 h -9.4e-4 v 0.0015 c -0.30834,-0.0298 -0.61794,-0.04489 -0.92775,-0.04489 -0.30915,1.96e-4 -0.61809,0.0155 -0.92576,0.04489 h -9.3e-4 v -0.0032 l -9.4e-4,-0.001 z m 1.36467,9.67865 c -0.13302,0.0033 -0.26448,0.03386 -0.38788,0.08397 -0.13638,0.05569 -0.2607,0.137564 -0.36595,0.240938 -0.10523,0.103104 -0.18937,0.22569 -0.24791,0.360923 l -0.0159,0.03511 c -0.0522,0.132527 -0.079,0.274506 -0.079,0.416895 0,0.142392 0.027,0.283385 0.079,0.415914 l 0.0159,0.03504 c 0.0571,0.132122 0.13902,0.253362 0.24094,0.354932 0.10205,0.101781 0.22257,0.182241 0.35493,0.238926 l 0.0223,0.0097 c 0.12879,0.05222 0.26599,0.08108 0.40486,0.083 h 0.0213 0.0159 c 0.14413,-0.0014 0.28678,-0.03175 0.41991,-0.08706 l 9.4e-4,-0.001 c 0.13761,-0.05685 0.26245,-0.140067 0.3679,-0.244945 0.10459,-0.104848 0.18784,-0.229136 0.24495,-0.365919 v -0.001 l 9.3e-4,-10e-4 c 0.0574,-0.138146 0.0868,-0.286354 0.087,-0.435898 v -10e-4 c 1.9e-4,-0.143732 -0.027,-0.286205 -0.0797,-0.419883 v -10e-4 l -9.4e-4,-0.0014 -0.0102,-0.02899 -9.3e-4,-0.0033 c -0.057,-0.130589 -0.13813,-0.249315 -0.23896,-0.349919 -0.20326,-0.202893 -0.47579,-0.322234 -0.76282,-0.331907 z m -0.189,0.90477 h 0.46387 v 0.463889 h -0.46387 z"
       style="fill:#fcd804;fill-opacity:1;stroke-width:0.0195321;stroke-linejoin:round"
       id="path6-9-7-1" /><text
       xml:space="preserve"
       style="font-size:8.46667px;font-family:Aldrich;-inkscape-font-specification:'Aldrich, Normal';text-align:start;writing-mode:lr-tb;direction:ltr;text-anchor:start;fill:#fcd804;fill-opacity:1;stroke:none;stroke-width:0.1;stroke-linecap:round;stroke-linejoin:round;stroke-dasharray:none;stroke-dashoffset:0;stroke-opacity:1;paint-order:normal"
       x="458.46545"
       y="54.391705"
       id="text518-4-3-7"><tspan
         sodipodi:role="line"
         id="tspan518-0-7-7"
         style="font-style:normal;font-variant:normal;font-weight:normal;font-stretch:normal;font-size:7.76111px;font-family:Aldrich;-inkscape-font-specification:'Aldrich, Normal';font-variant-ligatures:normal;font-variant-caps:normal;font-variant-numeric:normal;font-variant-east-asian:normal;fill:#fcd804;fill-opacity:1;stroke:none;stroke-width:0.1;stroke-dasharray:none;stroke-opacity:1"
         x="458.46545"
         y="54.391705">FRC Team #2077</tspan></text><g
       id="path27"
       style="opacity:1;fill:#fcd804;fill-opacity:1;stroke:none"
       transform="translate(-4.7002827e-4,14.24522)"><path
         style="baseline-shift:baseline;display:inline;overflow:visible;vector-effect:none;fill:#fcd804;fill-opacity:1;stroke:none;stroke-linecap:round;stroke-linejoin:round;enable-background:accumulate;stop-color:#000000;stop-opacity:1"
         d="m 456.1458,32.645772 c 23.99999,0 47.99999,0 71.99998,0"
         id="path50" /><path
         style="baseline-shift:baseline;display:inline;overflow:visible;vector-effect:none;fill:#fcd804;fill-opacity:1;stroke:none;stroke-linecap:round;stroke-linejoin:round;enable-background:accumulate;stop-color:#000000;stop-opacity:1"
         d="m 455.14648,32.146484 c -0.27614,0 -0.5,0.223858 -0.5,0.5 0,0.276142 0.22386,0.5 0.5,0.5 h 73 c 0.27614,0 0.5,-0.223858 0.5,-0.5 0,-0.276142 -0.22386,-0.5 -0.5,-0.5 z"
         id="path52"
         sodipodi:nodetypes="sssssss" /></g></g></svg>
